# xmcd CD database file
#
# Track frame offsets:
#	150
#	14035
#	29522
#	42090
#	53370
#	62580
#	78472
#	93845
#	104667
#	115202
#	136527
#	150365
#	169292
#	183195
#	197660
#	214030
#	231165
#	246795
#	261830
#	275610
#
# Disc length: 3855 seconds
#
# Revision: 2
# Processed by: cddbd v1.5.2PL0 Copyright (c) Steve Scherf et al.
# Submitted via: CDex 1.51
#
DISCID=0a0f0d14
DTITLE=Don McLean - For The Memories
DYEAR=1989
DGENRE=Rock
TTITLE0=Don't
TTITLE1=Crazy
TTITLE2=Travelin' Man
TTITLE3=You Don't Know Me
TTITLE4=Sittin' in the Balcony
TTITLE5=Wonderful World
TTITLE6=I Can't Help It
TTITLE7=Maybe Baby
TTITLE8=White Sport Coat
TTITLE9=If I Only Had A Match
TTITLE10=But Beautiful
TTITLE11=Over the Weekend
TTITLE12=Someone To Watch Over ME
TTITLE13=Somebody Loves Me
TTITLE14=Count Your Blessings
TTITLE15=It Had To Be You
TTITLE16=Not A Moment Too Soon
TTITLE17=Change Partners
TTITLE18=Nobody Knows You When You're Down And Out
TTITLE19=Stardust
EXTD=YEAR: 1989
EXTT0=
EXTT1=
EXTT2=
EXTT3=
EXTT4=
EXTT5=
EXTT6=
EXTT7=
EXTT8=
EXTT9=
EXTT10=
EXTT11=
EXTT12=
EXTT13=
EXTT14=
EXTT15=
EXTT16=
EXTT17=
EXTT18=
EXTT19=
PLAYORDER=
